<svg id="Layer_1" data-name="Layer 1" xmlns="http://www.w3.org/2000/svg" viewBox="0 0 512 512"><defs><style>.cls-1{fill:#fff;stroke:#4c7dfe;stroke-miterlimit:10;stroke-width:14px;}.cls-2,.cls-3{fill:#4c7dfe;}.cls-3{fill-rule:evenodd;}</style></defs><path class="cls-1" d="M457.71,57.84,266,13.86a34.38,34.38,0,0,0-19.64,0l-191.84,44A34.19,34.19,0,0,0,30.19,93.05L52.38,377.81a34.25,34.25,0,0,0,17.38,27.45l169.69,90a34.13,34.13,0,0,0,33.17,0l169.68-90a34.23,34.23,0,0,0,17.39-27.49L481.8,93a34.16,34.16,0,0,0-24.09-35.17Z"/><path class="cls-2" d="M342,257.19a82.86,82.86,0,0,1-13.21,44.05L260,412a5.69,5.69,0,0,1-2,2,5.53,5.53,0,0,1-2.75.71H205.53a5.64,5.64,0,0,1-5-2.94,5.52,5.52,0,0,1-.7-2.92,5.63,5.63,0,0,1,.89-2.87l37.73-59.74a5.74,5.74,0,0,0,.42-5.14,5.74,5.74,0,0,0-1.55-2.16A5.64,5.64,0,0,0,235,337.7a89.72,89.72,0,0,1-10.12-3.27C193.57,322.56,170,293.1,170,257.54c0-45.23,38.59-82.28,85.64-82.28S342,212.17,342,257.19Zm-52.16.35a33.86,33.86,0,1,0-34,33,33.44,33.44,0,0,0,33.77-33.12Z"/><path class="cls-3" d="M222.87,118.9c-.34,21.39,14.64,34.82,34.43,35S293,141,293,119.59s-15.09-34.79-34.77-35S223.22,97.5,222.87,118.9ZM257.42,136c7.33-.06,14.17-5.35,14.27-16.63s-6.57-16.87-13.91-16.94-13.9,5.18-14.15,16.66S250,135.92,257.42,136ZM178.16,88.87c16.79-2,29.73,5.92,35.05,21.47l-21.8,2.54a10.66,10.66,0,0,0-11.58-6.44c-7.3.84-11.69,7.2-10.43,18.34s6.95,16.35,14.32,15.48a10.43,10.43,0,0,0,9.77-8.91l21.84-2.54a31.31,31.31,0,0,1-29.21,28.91c-19.68,2.3-35.12-9.29-37.55-30.51S158.51,91.17,178.16,88.87ZM120,169.06c-17.39,4.07-31.54-2.95-35.43-15.44L104.48,149a9.42,9.42,0,0,0,11.85,5.32c5.19-1.21,7.34-4.17,6.68-7.13-1-4.14-6.92-4.15-14.08-4.17-10.88,0-24.57,0-27.92-14.58-2.61-11.2,4.8-22.58,22-26.55s28.51,3.31,32.79,15.94l-18.57,4.31A8.9,8.9,0,0,0,105.83,117c-4.69,1.08-7,3.48-6.12,6.75,1,4.12,6.83,4.18,14,4.25,10.88.11,24.66.24,28.3,15C144.36,154.35,136.36,165.27,120,169.06Zm246.88-5.84-20.45-2.82,1.25-9.08a24.35,24.35,0,0,1-21.56,7c-15.4-2.12-24.33-14.23-21.87-32l5.39-39L330,90.05l-5,36.26c-1.25,9.08,3.2,14.82,10.85,15.9s13.6-3.24,14.85-12.35l5-36.26,20.45,2.86Zm19.36-46.93,8,1.94L387.8,144.4c-4.14,17,4,24.91,17.59,28.39l10.19,2.47,4.27-17-7.16-1.73c-4.45-1-5.7-3.1-4.76-7l6.4-26.44,13.1,3.2,4.07-16.67-13.14-3.2,3.86-16L402.16,85.6l-3.86,16-8-1.95Z"/></svg>