<svg id="Layer_1" data-name="Layer 1" xmlns="http://www.w3.org/2000/svg" viewBox="0 0 32 32"><defs><style>.cls-1{fill:#fff;stroke:#4c7dfe;stroke-miterlimit:10;stroke-width:2px;}.cls-2{fill:#4c7dfe;}</style></defs><path class="cls-1" d="M3.18,5.4A2.83,2.83,0,0,0,1.65,6.54,2.75,2.75,0,0,0,1.2,8.38L2.91,22.91a2.71,2.71,0,0,0,.48,1.28,2.79,2.79,0,0,0,1,.9l10.06,5.18a2.79,2.79,0,0,0,1.33.33,2.82,2.82,0,0,0,1.33-.33L27.2,25.09a2.77,2.77,0,0,0,1-.91,2.81,2.81,0,0,0,.48-1.28L30.43,8.37a2.81,2.81,0,0,0-2-3L17.55,1.57a6.36,6.36,0,0,0-3.46,0Z"/><path class="cls-2" d="M22.65,13a6.38,6.38,0,0,1-1,3.44l-5.44,8.63a.45.45,0,0,1-.18.18.48.48,0,0,1-.26.07h-3.8a.48.48,0,0,1-.26-.07.44.44,0,0,1-.19-.19.4.4,0,0,1-.06-.26.5.5,0,0,1,.08-.26l2.89-4.49a.48.48,0,0,0,.07-.23.45.45,0,0,0,0-.23.52.52,0,0,0-.14-.19.45.45,0,0,0-.21-.12,6.18,6.18,0,0,1-.73-.23A6.49,6.49,0,0,1,9,13a6.64,6.64,0,0,1,6.81-6.43A6.67,6.67,0,0,1,22.65,13Zm-4.16,0a2.61,2.61,0,0,0-.42-1.49,2.66,2.66,0,0,0-1.19-1,2.78,2.78,0,0,0-1.56-.18,2.7,2.7,0,0,0-1.4.7,2.65,2.65,0,0,0-.63,2.9,2.69,2.69,0,0,0,2.49,1.65,2.6,2.6,0,0,0,1-.18,2.57,2.57,0,0,0,.87-.55,2.72,2.72,0,0,0,.59-.84,2.69,2.69,0,0,0,.22-1Z"/></svg>