<svg id="Layer_1" data-name="Layer 1" xmlns="http://www.w3.org/2000/svg" viewBox="0 0 192 192"><defs><style>.cls-1{fill:#4c7dfe;}.cls-2,.cls-3{fill:#fff;}.cls-3{fill-rule:evenodd;}</style></defs><path class="cls-1" d="M172.6,20.74,99.8,4a13.15,13.15,0,0,0-7.46,0L19.49,20.74a13,13,0,0,0-9.25,13.37l8.43,108.15a13,13,0,0,0,6.6,10.43l64.44,34.18a13,13,0,0,0,12.6,0l64.44-34.17a13.05,13.05,0,0,0,6.61-10.44L181.75,34.1a13,13,0,0,0-9.15-13.36Z"/><path class="cls-2" d="M128.65,96.45a31.44,31.44,0,0,1-5,16.73L97.52,155.25a2.1,2.1,0,0,1-1.82,1H76.83A2.16,2.16,0,0,1,75,153l14.33-22.69a2.18,2.18,0,0,0,.16-1.95A2.16,2.16,0,0,0,88,127a32.61,32.61,0,0,1-3.85-1.25c-11.88-4.5-20.82-15.69-20.82-29.2,0-17.17,14.66-31.24,32.52-31.24S128.65,79.35,128.65,96.45Zm-19.81.13a12.86,12.86,0,1,0-12.9,12.53,12.73,12.73,0,0,0,9-3.63,12.72,12.72,0,0,0,3.8-9Z"/><path class="cls-3" d="M83.42,43.93C83.29,52.06,89,57.16,96.49,57.22S110,52.32,110,44.2,104.31,31,96.84,30.9,83.55,35.81,83.42,43.93Zm13.12,6.5c2.78,0,5.38-2,5.42-6.31s-2.5-6.41-5.28-6.44-5.28,2-5.38,6.33S93.71,50.4,96.54,50.43Zm-30.1-17.9c6.38-.74,11.29,2.25,13.31,8.15l-8.28,1a4.05,4.05,0,0,0-4.4-2.45c-2.77.32-4.44,2.74-4,7s2.64,6.21,5.44,5.88a3.94,3.94,0,0,0,3.71-3.38l8.29-1a11.9,11.9,0,0,1-11.09,11C62,59.55,56.12,55.15,55.2,47.09S59,33.4,66.44,32.53ZM44.36,63c-6.6,1.55-12-1.12-13.46-5.86l7.56-1.76a3.57,3.57,0,0,0,4.5,2c2-.46,2.79-1.58,2.53-2.71-.37-1.57-2.62-1.57-5.34-1.58-4.13,0-9.33,0-10.61-5.54-1-4.25,1.82-8.57,8.35-10.08s10.83,1.26,12.45,6.05l-7.05,1.64a3.39,3.39,0,0,0-4.32-2c-1.78.41-2.64,1.32-2.32,2.56.36,1.57,2.59,1.59,5.29,1.62,4.13,0,9.37.09,10.75,5.69C53.6,57.4,50.57,61.54,44.36,63Zm93.76-2.22-7.77-1.07.48-3.44a9.25,9.25,0,0,1-8.19,2.64c-5.85-.81-9.24-5.41-8.31-12.17l2-14.81L124.09,33l-1.9,13.77c-.48,3.44,1.21,5.62,4.12,6s5.16-1.22,5.64-4.69l1.91-13.76,7.77,1.08Zm7.35-17.82,3,.74-2.46,9.94c-1.57,6.46,1.52,9.46,6.68,10.78l3.87.94,1.63-6.46-2.72-.67c-1.69-.39-2.17-1.17-1.81-2.64l2.43-10,5,1.22,1.54-6.33-5-1.22,1.47-6.06-7.62-1.85L150,37.35l-3-.74Z"/></svg>