<svg id="Layer_1" data-name="Layer 1" xmlns="http://www.w3.org/2000/svg" viewBox="0 0 128 128"><defs><style>.cls-1{fill:#4c7dfe;}.cls-2,.cls-3{fill:#fff;}.cls-3{fill-rule:evenodd;}</style></defs><path class="cls-1" d="M114.89,14,66.53,2.91a8.72,8.72,0,0,0-5,0L13.17,14A8.63,8.63,0,0,0,7,22.89l5.6,71.84A8.64,8.64,0,0,0,17,101.66l42.8,22.7a8.58,8.58,0,0,0,8.37,0L111,101.67a8.76,8.76,0,0,0,3.07-2.92,8.59,8.59,0,0,0,1.32-4L121,22.88A8.63,8.63,0,0,0,114.89,14Z"/><path class="cls-2" d="M85.69,64.3a21,21,0,0,1-3.33,11.11L65,103.36a1.36,1.36,0,0,1-.51.5,1.42,1.42,0,0,1-.7.17H51.27a1.44,1.44,0,0,1-1.44-1.47,1.46,1.46,0,0,1,.23-.73l9.51-15.07a1.43,1.43,0,0,0,.21-.63,1.42,1.42,0,0,0-.49-1.21,1.46,1.46,0,0,0-.59-.31,23.09,23.09,0,0,1-2.56-.82,21,21,0,0,1-13.83-19.4c0-11.41,9.74-20.76,21.61-20.76S85.69,52.94,85.69,64.3Zm-13.16.09a8.74,8.74,0,1,0-.72,3.19,8.53,8.53,0,0,0,.72-3.19Z"/><path class="cls-3" d="M55.64,29.41c-.08,5.4,3.7,8.79,8.69,8.83s9-3.26,9-8.65a8.45,8.45,0,0,0-8.77-8.83A8.4,8.4,0,0,0,55.64,29.41Zm8.72,4.32c1.85,0,3.57-1.35,3.6-4.2s-1.66-4.25-3.51-4.27-3.51,1.31-3.57,4.2S62.48,33.71,64.36,33.73Zm-20-11.89c4.24-.5,7.5,1.49,8.84,5.41l-5.5.64a2.69,2.69,0,0,0-1.17-1.32,2.73,2.73,0,0,0-1.75-.3c-1.84.21-2.94,1.82-2.63,4.62S43.91,35,45.77,34.8a2.62,2.62,0,0,0,2.46-2.25l5.51-.64a7.9,7.9,0,0,1-7.37,7.3c-5,.58-8.86-2.35-9.47-7.7S39.41,22.42,44.36,21.84ZM29.69,42.07c-4.38,1-8-.75-8.93-3.9l5-1.17A2.35,2.35,0,0,0,27,38.27a2.38,2.38,0,0,0,1.76.08c1.31-.31,1.86-1.06,1.69-1.8-.25-1-1.75-1-3.55-1-2.75,0-6.2,0-7-3.68-.66-2.83,1.21-5.7,5.55-6.7s7.19.83,8.27,4L29,30.23a2.24,2.24,0,0,0-2.86-1.31c-1.19.27-1.76.88-1.55,1.7.24,1,1.73,1.06,3.52,1.08,2.74,0,6.22.06,7.14,3.78C35.84,38.35,33.82,41.11,29.69,42.07ZM92,40.59l-5.16-.71.32-2.29a6.17,6.17,0,0,1-5.44,1.76c-3.89-.54-6.14-3.59-5.52-8.09l1.36-9.84,5.12.71L81.4,31.28c-.32,2.29.8,3.74,2.74,4s3.42-.81,3.74-3.11L89.15,23l5.16.72Zm4.88-11.84,2,.49-1.63,6.6c-1,4.3,1,6.29,4.44,7.17l2.57.62,1.08-4.29-1.81-.44c-1.12-.26-1.44-.78-1.2-1.76l1.61-6.67,3.31.81,1-4.2L105,26.27l1-4L100.87,21l-1,4-2-.49Z"/></svg>