<svg id="Layer_1" data-name="Layer 1" xmlns="http://www.w3.org/2000/svg" viewBox="0 0 16 16"><defs><style>.cls-1{fill:#fff;stroke:#4c7dfe;stroke-miterlimit:10;}.cls-2{fill:#4c7dfe;}</style></defs><path class="cls-1" d="M1.63,2.66a1.45,1.45,0,0,0-.76.57,1.34,1.34,0,0,0-.22.91l.85,7.19a1.34,1.34,0,0,0,.23.63,1.44,1.44,0,0,0,.51.44l5,2.57a1.49,1.49,0,0,0,.66.16A1.45,1.45,0,0,0,8.53,15l5-2.57A1.33,1.33,0,0,0,14,12a1.27,1.27,0,0,0,.23-.63l.85-7.18a1.42,1.42,0,0,0-.22-.92,1.48,1.48,0,0,0-.76-.56L8.74.77A3.14,3.14,0,0,0,7,.77Z"/><path class="cls-2" d="M11.26,6.42a3.15,3.15,0,0,1-.52,1.71L8.05,12.39a.2.2,0,0,1-.09.09.2.2,0,0,1-.13,0H6a.23.23,0,0,1-.14,0,.26.26,0,0,1-.09-.09.31.31,0,0,1,0-.13.2.2,0,0,1,0-.13L7.17,9.91a.36.36,0,0,0,0-.11.5.5,0,0,0,0-.12.2.2,0,0,0-.07-.09A.21.21,0,0,0,7,9.53a2.17,2.17,0,0,1-.36-.12,3.19,3.19,0,0,1-2.16-3A3.29,3.29,0,0,1,7.87,3.26,3.3,3.3,0,0,1,11.26,6.42Zm-2.06,0A1.29,1.29,0,0,0,9,5.7a1.43,1.43,0,0,0-.59-.5,1.49,1.49,0,0,0-.78-.09,1.38,1.38,0,0,0-.69.35,1.33,1.33,0,0,0-.31,1.43,1.36,1.36,0,0,0,.49.6,1.39,1.39,0,0,0,.74.22,1.44,1.44,0,0,0,.51-.09,1.21,1.21,0,0,0,.43-.27,1.25,1.25,0,0,0,.3-.42,1.38,1.38,0,0,0,.1-.49Z"/></svg>