<svg id="Layer_1" data-name="Layer 1" xmlns="http://www.w3.org/2000/svg" viewBox="0 0 96 96"><defs><style>.cls-1{fill:#4c7dfe;}.cls-2,.cls-3{fill:#fff;}.cls-3{fill-rule:evenodd;}</style></defs><path class="cls-1" d="M86.88,9.8,49.93,1.32a6.79,6.79,0,0,0-3.79,0L9.16,9.8a6.62,6.62,0,0,0-4.69,6.79L8.75,71.48a6.6,6.6,0,0,0,3.35,5.29L44.81,94.12A6.53,6.53,0,0,0,48,95a6.46,6.46,0,0,0,3.19-.83L83.91,76.78a6.58,6.58,0,0,0,3.35-5.3l4.27-54.9A6.6,6.6,0,0,0,86.88,9.8Z"/><path class="cls-2" d="M64.57,48.23A16,16,0,0,1,62,56.72L48.77,78.07a1,1,0,0,1-.39.38,1.1,1.1,0,0,1-.53.14H38.27a1.09,1.09,0,0,1-.56-.15,1,1,0,0,1-.4-.42,1.08,1.08,0,0,1-.14-.56,1.06,1.06,0,0,1,.18-.55l7.27-11.52a1.19,1.19,0,0,0,.16-.48A1.12,1.12,0,0,0,44.4,64a1.07,1.07,0,0,0-.45-.23,16.42,16.42,0,0,1-2-.63A16,16,0,0,1,31.43,48.3c0-8.72,7.44-15.86,16.51-15.86S64.57,39.55,64.57,48.23Zm-10,.07a6.53,6.53,0,0,0-11.07-4.87,6.56,6.56,0,0,0-1.51,7.14,6.52,6.52,0,0,0,10.61,2.24A6.44,6.44,0,0,0,54,50.73a6.31,6.31,0,0,0,.52-2.46Z"/><path class="cls-3" d="M41.61,21.57a6.36,6.36,0,0,0,6.64,6.75c3.81,0,6.88-2.49,6.88-6.61A6.46,6.46,0,0,0,48.42,15,6.43,6.43,0,0,0,41.61,21.57Zm6.66,3.3c1.42,0,2.74-1,2.76-3.2s-1.27-3.26-2.69-3.27-2.68,1-2.72,3.21S46.84,24.85,48.27,24.87ZM33,15.78a5.94,5.94,0,0,1,6.75,4.14l-4.2.49a2.11,2.11,0,0,0-.9-1,2.06,2.06,0,0,0-1.33-.23c-1.41.16-2.26,1.39-2,3.53s1.34,3.16,2.76,3A2,2,0,0,0,36,24l4.21-.49a6,6,0,0,1-5.63,5.58c-3.79.44-6.77-1.79-7.24-5.89S29.21,16.23,33,15.78ZM21.79,31.24c-3.35.79-6.08-.57-6.83-3l3.83-.89a1.82,1.82,0,0,0,.94,1,1.85,1.85,0,0,0,1.35.06c1-.24,1.41-.81,1.28-1.38-.18-.79-1.33-.8-2.71-.8-2.1,0-4.74,0-5.38-2.81-.5-2.16.92-4.35,4.23-5.12s5.5.64,6.32,3.07l-3.57.84a1.71,1.71,0,0,0-.9-.95,1.68,1.68,0,0,0-1.3-.05c-.9.2-1.34.67-1.18,1.3.19.79,1.32.8,2.69.82,2.1,0,4.76,0,5.46,2.89C26.48,28.41,24.94,30.51,21.79,31.24Zm47.59-1.12-3.94-.55.24-1.75a4.66,4.66,0,0,1-4.16,1.34c-3-.41-4.69-2.74-4.21-6.17l1-7.52,3.92.54-1,7a2.51,2.51,0,1,0,5,.68l1-7,3.94.55Zm3.73-9,1.54.37-1.24,5c-.8,3.28.77,4.8,3.39,5.47l2,.48.82-3.28-1.38-.34c-.85-.2-1.1-.6-.91-1.34l1.23-5.1,2.53.62.78-3.21-2.53-.62L80,16.09l-3.87-.94-.74,3.08-1.54-.37Z"/></svg>