<svg id="Layer_1" data-name="Layer 1" xmlns="http://www.w3.org/2000/svg" viewBox="0 0 152 152"><defs><style>.cls-1{fill:#fff;stroke:#4c7dfe;stroke-miterlimit:10;stroke-width:5px;}.cls-2,.cls-3{fill:#4c7dfe;}.cls-3{fill-rule:evenodd;}</style></defs><path class="cls-1" d="M135.62,17.42,79,4.42a10.26,10.26,0,0,0-5.81,0l-56.7,13a10.11,10.11,0,0,0-7.2,10.41L15.81,112A10.15,10.15,0,0,0,21,120.12l50.16,26.61a10.09,10.09,0,0,0,9.8,0l50.16-26.6a10.14,10.14,0,0,0,3.6-3.41,10.26,10.26,0,0,0,1.54-4.71l6.54-84.19a10.09,10.09,0,0,0-7.13-10.4Z"/><path class="cls-2" d="M101.41,76.35a24.45,24.45,0,0,1-3.9,13L77.19,122.12a1.7,1.7,0,0,1-.61.58,1.66,1.66,0,0,1-.81.21H61.08a1.73,1.73,0,0,1-.86-.23,1.81,1.81,0,0,1-.62-.64,1.7,1.7,0,0,1-.2-.86,1.67,1.67,0,0,1,.26-.85l11.15-17.66a1.66,1.66,0,0,0,.13-1.52,1.72,1.72,0,0,0-.46-.64,1.7,1.7,0,0,0-.69-.36,23.71,23.71,0,0,1-3-1C57.55,95.68,50.59,87,50.59,76.46,50.59,63.09,62,52.13,75.9,52.13S101.41,63,101.41,76.35ZM86,76.46A10,10,0,0,0,74.21,66.33,9.91,9.91,0,0,0,69,69a10,10,0,0,0,1.35,15.48A9.93,9.93,0,0,0,76,86.2a9.87,9.87,0,0,0,7-2.82,9.85,9.85,0,0,0,2.18-3.19,10,10,0,0,0,.78-3.78Z"/><path class="cls-3" d="M66.21,35.47c-.1,6.33,4.33,10.3,10.17,10.35S86.93,42,86.93,35.68,82.47,25.39,76.65,25.33,66.31,29.15,66.21,35.47Zm10.21,5.06c2.17,0,4.19-1.58,4.22-4.91s-1.94-5-4.11-5-4.11,1.53-4.19,4.92S74.22,40.5,76.42,40.53ZM53,26.6c5-.58,8.79,1.75,10.36,6.34l-6.44.75a3.25,3.25,0,0,0-1.38-1.55,3.16,3.16,0,0,0-2.05-.35C51.33,32,50,33.92,50.4,37.21s2.06,4.83,4.23,4.58a3.1,3.1,0,0,0,1.92-.8,3,3,0,0,0,1-1.84L64,38.4A9.26,9.26,0,0,1,55.34,47c-5.81.68-10.38-2.75-11.1-9S47.18,27.28,53,26.6ZM35.8,50.3c-5.13,1.21-9.32-.87-10.47-4.56l5.88-1.37a2.83,2.83,0,0,0,1.44,1.49,2.79,2.79,0,0,0,2.07.08c1.53-.36,2.16-1.23,2-2.11-.29-1.22-2-1.22-4.16-1.23-3.22,0-7.27,0-8.26-4.31-.77-3.31,1.42-6.67,6.5-7.85s8.43,1,9.69,4.71L35,36.43A2.63,2.63,0,0,0,33.61,35a2.66,2.66,0,0,0-2-.07c-1.39.32-2.05,1-1.81,2,.29,1.22,2,1.24,4.12,1.26,3.22,0,7.3.07,8.37,4.43C43,46,40.64,49.18,35.8,50.3Zm73-1.73-6-.83.37-2.68a7.3,7.3,0,0,1-2.94,1.81,7.17,7.17,0,0,1-3.44.24c-4.55-.62-7.19-4.2-6.46-9.47l1.59-11.53,6,.84L96.39,37.66c-.37,2.69.94,4.38,3.2,4.7s4-1,4.39-3.65L105.47,28l6,.84Zm5.73-13.87,2.36.58L115,43c-1.23,5,1.18,7.36,5.2,8.39l3,.73,1.26-5-2.11-.51c-1.32-.31-1.69-.92-1.41-2.06l1.89-7.81,3.88.94,1.2-4.92-3.89-1,1.14-4.72-5.93-1.44-1.14,4.72-2.35-.58Z"/></svg>