<svg id="Layer_1" data-name="Layer 1" xmlns="http://www.w3.org/2000/svg" viewBox="0 0 152 152"><defs><style>.cls-1{fill:#4c7dfe;}.cls-2,.cls-3{fill:#fff;}.cls-3{fill-rule:evenodd;}</style></defs><path class="cls-1" d="M134.24,18.79,78.89,6.09a10,10,0,0,0-5.67,0L17.83,18.79A9.87,9.87,0,0,0,10.8,29l6.41,82.22a9.85,9.85,0,0,0,5,7.92l49,26a9.87,9.87,0,0,0,9.58,0l49-26a9.94,9.94,0,0,0,3.51-3.34,9.8,9.8,0,0,0,1.51-4.6l6.38-82.23a9.85,9.85,0,0,0-6.95-10.15Z"/><path class="cls-2" d="M100.82,76.34A24,24,0,0,1,97,89.06L77.16,121a1.61,1.61,0,0,1-.59.57,1.59,1.59,0,0,1-.8.21H61.43A1.64,1.64,0,0,1,60,121a1.6,1.6,0,0,1,0-1.67l10.9-17.25a1.69,1.69,0,0,0,.23-.73,1.78,1.78,0,0,0-.11-.76,1.63,1.63,0,0,0-.45-.62,1.58,1.58,0,0,0-.68-.35,24.87,24.87,0,0,1-2.92-1c-9-3.42-15.83-11.93-15.83-22.2,0-13,11.14-23.75,24.72-23.75S100.82,63.35,100.82,76.34Zm-15.06.1a9.8,9.8,0,0,0-1.51-5.5,9.77,9.77,0,0,0-15.07-1.78A9.8,9.8,0,0,0,79.66,85.27a9.61,9.61,0,0,0,5.27-5.18,9.53,9.53,0,0,0,.77-3.69Z"/><path class="cls-3" d="M66.44,36.42c-.1,6.17,4.22,10,9.93,10.1s10.3-3.73,10.3-9.9-4.35-10-10-10.11S66.54,30.24,66.44,36.42Zm10,4.94c2.12,0,4.09-1.55,4.12-4.8s-1.9-4.88-4-4.9-4,1.5-4.09,4.82S74.26,41.33,76.41,41.36ZM53.53,27.75c4.84-.57,8.58,1.7,10.12,6.19l-6.3.74A3.08,3.08,0,0,0,56,33.16a3.12,3.12,0,0,0-2-.34c-2.11.24-3.38,2.08-3,5.29s2,4.72,4.13,4.47A3,3,0,0,0,57,41.8,3,3,0,0,0,58,40l6.31-.73a9.06,9.06,0,0,1-8.44,8.35c-5.68.66-10.13-2.69-10.84-8.81S47.85,28.41,53.53,27.75ZM36.74,50.9c-5,1.18-9.11-.85-10.23-4.46l5.74-1.34a2.72,2.72,0,0,0,3.43,1.54c1.49-.35,2.11-1.2,1.92-2.06-.28-1.19-2-1.2-4.06-1.2-3.14,0-7.09,0-8.06-4.21-.76-3.24,1.38-6.52,6.34-7.67s8.23,1,9.47,4.6l-5.36,1.25a2.59,2.59,0,0,0-3.29-1.5c-1.35.31-2,1-1.76,1.95.28,1.19,2,1.21,4,1.23,3.14,0,7.12.07,8.17,4.33C43.77,46.65,41.46,49.81,36.74,50.9ZM108,49.21l-5.9-.81.36-2.62a7.07,7.07,0,0,1-6.23,2c-4.45-.62-7-4.11-6.31-9.25l1.55-11.27,5.87.82L95.91,38.56c-.36,2.62.92,4.27,3.13,4.59s3.93-.94,4.29-3.57l1.46-10.47,5.9.83Zm5.59-13.55,2.31.56-1.87,7.56c-1.19,4.91,1.16,7.19,5.08,8.19l2.94.72,1.24-4.91-2.07-.51c-1.29-.3-1.65-.89-1.38-2l1.85-7.63,3.79.92,1.17-4.81-3.79-.92L124,28.21,118.2,26.8l-1.12,4.61-2.3-.56Z"/></svg>