<svg id="Layer_1" data-name="Layer 1" xmlns="http://www.w3.org/2000/svg" viewBox="0 0 144 144"><defs><style>.cls-1{fill:#fff;stroke:#4c7dfe;stroke-miterlimit:10;stroke-width:5px;}.cls-2,.cls-3{fill:#4c7dfe;}.cls-3{fill-rule:evenodd;}</style></defs><path class="cls-1" d="M128.88,16.12,74.82,3.72a9.68,9.68,0,0,0-5.54,0L15.19,16.12a9.63,9.63,0,0,0-6.87,9.93l6.26,80.3a9.63,9.63,0,0,0,4.9,7.74l47.85,25.38a9.59,9.59,0,0,0,9.36,0l47.85-25.37a9.62,9.62,0,0,0,4.9-7.75L135.68,26a9.63,9.63,0,0,0-6.8-9.92Z"/><path class="cls-2" d="M96.24,72.34a23.34,23.34,0,0,1-3.72,12.42L73.13,116a1.53,1.53,0,0,1-.58.55,1.58,1.58,0,0,1-.77.2h-14a1.58,1.58,0,0,1-.82-.22,1.51,1.51,0,0,1-.59-.61,1.56,1.56,0,0,1-.2-.82,1.64,1.64,0,0,1,.25-.81L67.05,97.44a1.5,1.5,0,0,0,.24-.71,1.58,1.58,0,0,0-.12-.74,1.62,1.62,0,0,0-.43-.61,1.7,1.7,0,0,0-.67-.34,25.58,25.58,0,0,1-2.85-.92c-8.83-3.35-15.46-11.66-15.46-21.69,0-12.75,10.88-23.2,24.15-23.2S96.24,59.64,96.24,72.34Zm-14.7.09A9.55,9.55,0,1,0,72,81.74,9.5,9.5,0,0,0,78.65,79a9.39,9.39,0,0,0,2.83-6.65Z"/><path class="cls-3" d="M62.66,33.34c-.1,6,4.13,9.82,9.71,9.87s10.06-3.64,10.06-9.68-4.26-9.81-9.81-9.87S62.76,27.3,62.66,33.34Zm9.74,4.82c2.07,0,4-1.51,4-4.69s-1.86-4.75-3.93-4.77-3.92,1.46-4,4.69S70.3,38.14,72.4,38.16ZM50.05,24.87c4.73-.55,8.38,1.67,9.88,6.05l-6.15.72a3,3,0,0,0-1.31-1.48,3,3,0,0,0-1.95-.34c-2.06.24-3.3,2-2.94,5.17s2,4.62,4,4.37a3,3,0,0,0,1.82-.76,2.93,2.93,0,0,0,.93-1.75l6.16-.72a8.83,8.83,0,0,1-8.24,8.16c-5.55.64-9.9-2.62-10.59-8.61S44.51,25.52,50.05,24.87ZM33.65,47.48c-4.9,1.15-8.89-.83-10-4.35l5.61-1.31a2.68,2.68,0,0,0,1.37,1.42,2.63,2.63,0,0,0,2,.08c1.46-.34,2.07-1.17,1.89-2-.28-1.17-2-1.17-4-1.17-3.07,0-6.93,0-7.88-4.12-.73-3.16,1.35-6.36,6.2-7.48s8,.93,9.25,4.49l-5.24,1.22a2.5,2.5,0,0,0-1.3-1.39,2.53,2.53,0,0,0-1.91-.07c-1.32.3-2,1-1.72,1.9.27,1.16,1.92,1.18,3.93,1.2,3.07,0,7,.07,8,4.23C40.52,43.33,38.26,46.41,33.65,47.48Zm69.62-1.64L97.51,45l.35-2.56a6.81,6.81,0,0,1-2.8,1.73,6.88,6.88,0,0,1-3.28.23c-4.34-.6-6.86-4-6.17-9l1.52-11,5.73.79L91.45,35.43c-.36,2.56.9,4.18,3.06,4.48s3.83-.91,4.18-3.48l1.43-10.23,5.76.81Zm5.47-13.24,2.25.55-1.82,7.38c-1.17,4.8,1.12,7,5,8l2.87.7,1.21-4.8-2-.49c-1.26-.29-1.61-.87-1.35-2l1.81-7.46,3.7.91,1.14-4.7-3.7-.91,1.08-4.5L113.22,24l-1.09,4.5-2.25-.55Z"/></svg>