<svg id="Layer_1" data-name="Layer 1" xmlns="http://www.w3.org/2000/svg" viewBox="0 0 64 64"><defs><style>.cls-1{fill:#4c7dfe;}.cls-2{fill:#fff;}</style></defs><path class="cls-1" d="M5.28,10.36A6,6,0,0,0,2,12.79a5.83,5.83,0,0,0-.95,3.89L4.71,47.41a5.74,5.74,0,0,0,1,2.69A6.08,6.08,0,0,0,7.9,52L29.17,63a6.17,6.17,0,0,0,5.63,0L56.09,52a5.93,5.93,0,0,0,2.18-1.92,5.86,5.86,0,0,0,1-2.7l3.62-30.73A5.9,5.9,0,0,0,62,12.77a6,6,0,0,0-3.24-2.42L35.66,2.28a13.39,13.39,0,0,0-7.32,0Z"/><path class="cls-2" d="M46.45,26.45a13.39,13.39,0,0,1-2.22,7.27L32.73,52a1.12,1.12,0,0,1-.39.39,1.25,1.25,0,0,1-.54.15h-8a1.2,1.2,0,0,1-.56-.15,1.12,1.12,0,0,1-.4-.41,1.06,1.06,0,0,1-.13-.55,1,1,0,0,1,.17-.55L29,41.35a1.19,1.19,0,0,0,.16-.48,1,1,0,0,0-.07-.49,1,1,0,0,0-.29-.41,1.26,1.26,0,0,0-.44-.24,14,14,0,0,1-1.55-.5,13.72,13.72,0,0,1-9.22-12.71C17.55,19,24,12.92,32,12.92S46.45,19,46.45,26.45Zm-8.79.05a5.52,5.52,0,0,0-.89-3.15,5.64,5.64,0,0,0-2.52-2.13,5.83,5.83,0,0,0-3.3-.38,5.77,5.77,0,0,0-3,1.49,5.66,5.66,0,0,0-1.61,2.86A5.57,5.57,0,0,0,28.76,31a5.7,5.7,0,0,0,8.44-2.37,5.53,5.53,0,0,0,.46-2.12Z"/></svg>