<svg id="Layer_1" data-name="Layer 1" xmlns="http://www.w3.org/2000/svg" viewBox="0 0 72 72"><defs><style>.cls-1{fill:#fff;stroke:#4c7dfe;stroke-miterlimit:10;stroke-width:3px;}.cls-2{fill:#4c7dfe;}</style></defs><path class="cls-1" d="M6.82,11.59a6.58,6.58,0,0,0-3.54,2.64,6.41,6.41,0,0,0-1,4.25L6.19,52A6.4,6.4,0,0,0,7.3,55a6.51,6.51,0,0,0,2.39,2.09L32.91,69a6.68,6.68,0,0,0,6.15,0l23.24-12A6.63,6.63,0,0,0,64.69,55,6.44,6.44,0,0,0,65.8,52l4-33.55a6.38,6.38,0,0,0-1-4.25,6.62,6.62,0,0,0-3.54-2.65L40,2.76a14.66,14.66,0,0,0-8,0Z"/><path class="cls-2" d="M51.78,29.15a14.65,14.65,0,0,1-2.42,8L36.8,57a1.18,1.18,0,0,1-.43.43,1.21,1.21,0,0,1-.59.16H27a1.22,1.22,0,0,1-.61-.17A1.14,1.14,0,0,1,26,57a1.05,1.05,0,0,1-.15-.6,1.17,1.17,0,0,1,.18-.6l6.68-10.38a1.16,1.16,0,0,0,.18-.51,1.23,1.23,0,0,0-.08-.54,1.2,1.2,0,0,0-.32-.45,1.25,1.25,0,0,0-.48-.26,13.9,13.9,0,0,1-1.69-.55A15,15,0,0,1,20.22,29.24c0-8.19,7.09-14.86,15.73-14.86S51.78,21,51.78,29.15Zm-9.6.06a6.11,6.11,0,0,0-1-3.44,6.29,6.29,0,0,0-9.59-1.11,6.06,6.06,0,0,0-1.44,6.67,6.13,6.13,0,0,0,2.28,2.78,6.27,6.27,0,0,0,3.47,1,5.94,5.94,0,0,0,2.36-.42,6.07,6.07,0,0,0,3.38-3.22,5.76,5.76,0,0,0,.51-2.31Z"/></svg>