<svg id="Layer_1" data-name="Layer 1" xmlns="http://www.w3.org/2000/svg" viewBox="0 0 192 192"><defs><style>.cls-1{fill:#fff;stroke:#4c7dfe;stroke-miterlimit:10;stroke-width:8px;}.cls-2,.cls-3{fill:#4c7dfe;}.cls-3{fill-rule:evenodd;}</style></defs><path class="cls-1" d="M171.55,22,99.75,5.49a12.81,12.81,0,0,0-7.36,0L20.54,22a12.8,12.8,0,0,0-9.12,13.19l8.31,106.66a12.84,12.84,0,0,0,6.51,10.29L89.8,185.81a12.78,12.78,0,0,0,12.42,0l63.56-33.7a12.79,12.79,0,0,0,4.56-4.33,12.65,12.65,0,0,0,1.95-6l8.29-106.67a12.81,12.81,0,0,0-9-13.18Z"/><path class="cls-2" d="M128.2,96.63a31.06,31.06,0,0,1-4.95,16.5L97.5,154.62a2,2,0,0,1-.76.74,2.09,2.09,0,0,1-1,.27H77.1a2.08,2.08,0,0,1-1.09-.3,2.17,2.17,0,0,1-.79-.8,2.23,2.23,0,0,1-.26-1.1,2.15,2.15,0,0,1,.34-1.07L89.43,130a2.14,2.14,0,0,0,.16-1.93,2.16,2.16,0,0,0-1.46-1.26,31,31,0,0,1-3.79-1.23c-11.72-4.44-20.54-15.48-20.54-28.8,0-16.94,14.45-30.82,32.08-30.82S128.2,79.77,128.2,96.63Zm-19.53.13a12.68,12.68,0,1,0-12.73,12.36,12.54,12.54,0,0,0,11.65-7.62,12.72,12.72,0,0,0,1-4.79Z"/><path class="cls-3" d="M83.59,44.83c-.13,8,5.49,13.05,12.9,13.11s13.36-4.83,13.36-12.85-5.65-13-13-13.11S83.72,36.82,83.59,44.83Zm12.94,6.42c2.75,0,5.31-2,5.35-6.23s-2.46-6.32-5.21-6.35-5.21,1.94-5.3,6.24S93.74,51.21,96.53,51.25ZM66.84,33.59c6.29-.73,11.14,2.21,13.13,8l-8.16.95a4,4,0,0,0-4.34-2.41c-2.74.31-4.38,2.7-3.91,6.87s2.61,6.12,5.37,5.79a3.82,3.82,0,0,0,2.42-1,3.91,3.91,0,0,0,1.24-2.32l8.18-1A11.74,11.74,0,0,1,69.83,59.38C62.45,60.24,56.67,55.9,55.76,48S59.48,34.45,66.84,33.59Zm-21.77,30c-6.52,1.53-11.82-1.1-13.27-5.78l7.45-1.73a3.53,3.53,0,0,0,4.44,2c1.94-.46,2.74-1.56,2.5-2.67-.37-1.55-2.6-1.56-5.28-1.56-4.07,0-9.2,0-10.46-5.47-1-4.19,1.8-8.45,8.24-9.94s10.67,1.24,12.28,6l-7,1.62a3.31,3.31,0,0,0-1.73-1.85,3.36,3.36,0,0,0-2.53-.1c-1.76.41-2.6,1.31-2.29,2.53.36,1.55,2.56,1.57,5.22,1.6,4.08,0,9.24.09,10.61,5.61C54.18,58.11,51.19,62.2,45.07,63.62Zm92.47-2.18-7.66-1.06.47-3.4a9.07,9.07,0,0,1-3.72,2.3,9.2,9.2,0,0,1-4.36.31c-5.77-.8-9.11-5.33-8.19-12l2-14.6L123.71,34l-1.88,13.58c-.47,3.4,1.2,5.55,4.06,6s5.1-1.21,5.57-4.62l1.88-13.58L141,36.43Zm7.25-17.58,3,.73-2.42,9.8c-1.55,6.37,1.49,9.33,6.59,10.63l3.81.92,1.6-6.37-2.68-.65c-1.67-.39-2.14-1.16-1.78-2.61l2.39-9.9,4.91,1.2,1.53-6.24-4.93-1.2,1.45-6-7.52-1.83-1.44,6-3-.73Z"/></svg>