<svg id="Layer_1" data-name="Layer 1" xmlns="http://www.w3.org/2000/svg" viewBox="0 0 128 128"><defs><style>.cls-1{fill:#fff;stroke:#4c7dfe;stroke-miterlimit:10;stroke-width:3px;}.cls-2,.cls-3{fill:#4c7dfe;}.cls-3{fill-rule:evenodd;}</style></defs><path class="cls-1" d="M114.06,14.82,66.48,3.91a8.59,8.59,0,0,0-4.87,0L14,14.82a8.51,8.51,0,0,0-6,8.74l5.51,70.67A8.51,8.51,0,0,0,17.78,101l42.11,22.34a8.45,8.45,0,0,0,8.23,0l42.11-22.33a8.39,8.39,0,0,0,3-2.87,8.57,8.57,0,0,0,1.3-4L120,23.55a8.51,8.51,0,0,0-6-8.73Z"/><path class="cls-2" d="M85.33,64.3a20.6,20.6,0,0,1-3.27,10.93L65,102.72a1.43,1.43,0,0,1-1.19.66H51.48a1.46,1.46,0,0,1-.72-.19,1.42,1.42,0,0,1-.52-.54,1.31,1.31,0,0,1-.18-.72,1.52,1.52,0,0,1,.22-.72l9.37-14.82a1.51,1.51,0,0,0,.2-.63,1.41,1.41,0,0,0-.48-1.18,1.46,1.46,0,0,0-.59-.31,22.23,22.23,0,0,1-2.51-.81,20.62,20.62,0,0,1-13.6-19.08C42.67,53.16,52.24,44,63.92,44S85.33,53.12,85.33,64.3Zm-12.94.08a8.4,8.4,0,0,0-16.62-2A8.41,8.41,0,0,0,64,72.57a8.44,8.44,0,0,0,3.18-.6,8.29,8.29,0,0,0,5.2-7.62Z"/><path class="cls-3" d="M55.78,30c-.09,5.31,3.63,8.64,8.54,8.68s8.86-3.2,8.86-8.51-3.75-8.63-8.63-8.69A8.28,8.28,0,0,0,55.78,30Zm8.57,4.24c1.82,0,3.52-1.32,3.54-4.12s-1.63-4.19-3.45-4.21S61,27.18,60.93,30,62.5,34.2,64.35,34.22ZM44.68,22.53c4.17-.49,7.38,1.46,8.7,5.32L48,28.48a2.67,2.67,0,0,0-1.16-1.3,2.61,2.61,0,0,0-1.71-.29c-1.81.2-2.9,1.78-2.59,4.55s1.72,4.05,3.55,3.84a2.59,2.59,0,0,0,1.61-.67,2.65,2.65,0,0,0,.82-1.54l5.42-.63a7.78,7.78,0,0,1-7.25,7.17c-4.89.57-8.72-2.3-9.32-7.57S39.81,23.1,44.68,22.53ZM30.26,42.43c-4.32,1-7.83-.74-8.8-3.84l4.94-1.15a2.35,2.35,0,0,0,2.94,1.33c1.29-.31,1.82-1,1.66-1.77-.25-1-1.72-1-3.5-1-2.7,0-6.09,0-6.93-3.62-.64-2.78,1.19-5.6,5.46-6.59s7.07.82,8.13,4l-4.6,1.07a2.23,2.23,0,0,0-2.83-1.29c-1.16.27-1.72.87-1.51,1.68.23,1,1.69,1,3.46,1,2.7,0,6.12.06,7,3.72C36.3,38.77,34.31,41.48,30.26,42.43ZM91.52,41l-5.07-.7L86.76,38a6,6,0,0,1-5.35,1.73c-3.83-.53-6-3.53-5.43-7.95l1.34-9.68,5,.7-1.25,9c-.31,2.25.8,3.67,2.7,3.94s3.37-.8,3.68-3.06l1.25-9,5.08.71Zm4.81-11.65,2,.48-1.6,6.49c-1,4.23,1,6.19,4.36,7.05l2.53.61,1.06-4.22-1.78-.43c-1.1-.26-1.41-.77-1.18-1.73L103.29,31l3.25.8,1-4.14-3.26-.79,1-4-5-1.21-1,4-2-.49Z"/></svg>