<svg id="Layer_1" data-name="Layer 1" xmlns="http://www.w3.org/2000/svg" viewBox="0 0 16 16"><defs><style>.cls-1{fill:#4c7dfe;}.cls-2{fill:#fff;}</style></defs><path class="cls-1" d="M1.09,2.22a1.6,1.6,0,0,0-.84.63,1.54,1.54,0,0,0-.24,1l.93,8a1.51,1.51,0,0,0,.27.7,1.57,1.57,0,0,0,.56.49l5.5,2.83a1.55,1.55,0,0,0,1.45,0L14.23,13a1.58,1.58,0,0,0,.56-.5,1.51,1.51,0,0,0,.27-.7L16,3.85a1.57,1.57,0,0,0-.24-1,1.58,1.58,0,0,0-.84-.62L9,.13a3.6,3.6,0,0,0-1.9,0Z"/><path class="cls-2" d="M11.74,6.29a3.58,3.58,0,0,1-.57,1.88l-3,4.72a.32.32,0,0,1-.1.1A.33.33,0,0,1,8,13H5.88a.37.37,0,0,1-.15,0,.27.27,0,0,1-.1-.11.23.23,0,0,1,0-.14.24.24,0,0,1,0-.14l1.58-2.46a.56.56,0,0,0,0-.12.3.3,0,0,0,0-.13.26.26,0,0,0-.07-.1l-.12-.07a2.07,2.07,0,0,1-.4-.13A3.53,3.53,0,0,1,4.27,6.31,3.63,3.63,0,0,1,8,2.79,3.65,3.65,0,0,1,11.74,6.29Zm-2.27,0a1.55,1.55,0,0,0-.23-.81,1.49,1.49,0,0,0-1.51-.65A1.39,1.39,0,0,0,7,5.23,1.42,1.42,0,0,0,6.55,6a1.45,1.45,0,0,0,.08.85,1.36,1.36,0,0,0,.54.65A1.47,1.47,0,0,0,8,7.71a1.35,1.35,0,0,0,.56-.1A1.45,1.45,0,0,0,9,7.31a1.5,1.5,0,0,0,.33-.46,1.69,1.69,0,0,0,.12-.55Z"/></svg>