<svg id="Layer_1" data-name="Layer 1" xmlns="http://www.w3.org/2000/svg" viewBox="0 0 384 384"><defs><style>.cls-1{fill:#4c7dfe;}.cls-2,.cls-3{fill:#fff;}.cls-3{fill-rule:evenodd;}</style></defs><path class="cls-1" d="M345.46,41.23,199.62,7.77a26.23,26.23,0,0,0-15,0L38.72,41.23A26,26,0,0,0,20.2,68L37.08,284.68A26.06,26.06,0,0,0,50.3,305.56L179.41,374a25.9,25.9,0,0,0,25.23,0l129.1-68.45A26,26,0,0,0,347,284.68L363.8,68a26,26,0,0,0-18.34-26.76Z"/><path class="cls-2" d="M257.41,192.91a63.08,63.08,0,0,1-10.05,33.51l-52.3,84.28a4.26,4.26,0,0,1-3.66,2H153.6a4.39,4.39,0,0,1-2.21-.6,4.25,4.25,0,0,1-1.59-1.64,4.31,4.31,0,0,1-.53-2.22,4.37,4.37,0,0,1,.68-2.19l28.7-45.45a4.32,4.32,0,0,0,.32-3.91,4.34,4.34,0,0,0-1.17-1.64,4.27,4.27,0,0,0-1.79-.93,68.43,68.43,0,0,1-7.7-2.49c-23.81-9-41.72-31.45-41.72-58.5,0-34.41,29.36-62.6,65.16-62.6S257.41,158.65,257.41,192.91Zm-39.68.26a25.63,25.63,0,1,0-16.09,23.26,25.45,25.45,0,0,0,15.93-23.36Z"/><path class="cls-3" d="M166.8,87.69c-.27,16.28,11.13,26.49,26.19,26.63s27.14-9.82,27.14-26.1-11.48-26.47-26.46-26.63S167.06,71.41,166.8,87.69Zm26.28,13c5.58,0,10.78-4.07,10.86-12.65s-5-12.84-10.58-12.89-10.58,3.94-10.77,12.68S187.41,100.64,193.08,100.71Zm-60.3-35.87c12.77-1.48,22.62,4.5,26.66,16.34l-16.58,1.93a8.09,8.09,0,0,0-8.81-4.9c-5.56.64-8.89,5.48-7.94,14s5.29,12.44,10.9,11.78a7.92,7.92,0,0,0,7.43-6.78l16.62-1.93a23.82,23.82,0,0,1-22.23,22c-15,1.74-26.72-7.07-28.57-23.22S117.83,66.59,132.78,64.84Zm-44.24,61c-13.22,3.09-24-2.25-26.95-11.76l15.13-3.52a7.17,7.17,0,0,0,9,4c3.94-.92,5.58-3.17,5.08-5.42-.75-3.15-5.27-3.16-10.71-3.17-8.28,0-18.7,0-21.25-11.1-2-8.52,3.65-17.18,16.72-20.2s21.69,2.52,25,12.13L86.4,90.15a6.77,6.77,0,0,0-8.65-4c-3.57.83-5.29,2.65-4.66,5.14.74,3.14,5.2,3.18,10.61,3.24,8.28.08,18.77.18,21.54,11.4C107.06,114.66,101,123,88.54,125.86Zm187.83-4.45-15.55-2.14.95-6.91a18.52,18.52,0,0,1-16.4,5.29c-11.72-1.61-18.52-10.82-16.64-24.38l4.1-29.67,15.45,2.14-3.81,27.59c-.95,6.9,2.43,11.27,8.25,12.09S263.07,103,264,96l3.83-27.59,15.56,2.17ZM291.11,85.7l6.08,1.48-4.92,19.91c-3.15,12.94,3.05,19,13.39,21.6l7.75,1.88,3.25-12.95-5.45-1.32c-3.38-.79-4.33-2.35-3.62-5.29l4.87-20.12,10,2.44,3.1-12.68-10-2.44,2.93-12.15-15.26-3.7L300.26,74.5,294.2,73Z"/></svg>