<svg xmlns="http://www.w3.org/2000/svg" viewBox="0 0 512 512">
    <defs>
        <style>.cls-1{fill:#4c7dfe;}.cls-2,.cls-3{fill:#fff;}.cls-3{fill-rule:evenodd;}</style>
    </defs>
    <path class="cls-1"
          d="M463.2,52.44,266.28,7.26a35.36,35.36,0,0,0-20.18,0L49,52.44A35.1,35.1,0,0,0,24,88.6L46.83,381.13a35.14,35.14,0,0,0,17.86,28.2L239,501.79a35,35,0,0,0,34.07,0l174.31-92.42a35.14,35.14,0,0,0,17.86-28.24L488,88.57A35.07,35.07,0,0,0,463.2,52.44Z"/>
    <path class="cls-2"
          d="M344.32,257.22a85.21,85.21,0,0,1-13.58,45.25L260.12,416.26A5.73,5.73,0,0,1,255.2,419h-51a5.93,5.93,0,0,1-3-.81,5.85,5.85,0,0,1-1.95-8.17L238,348.68a5.83,5.83,0,0,0,.43-5.28,5.83,5.83,0,0,0-1.58-2.22,6,6,0,0,0-2.42-1.26,88.73,88.73,0,0,1-10.4-3.36c-32.14-12.18-56.33-42.45-56.33-79,0-46.46,39.65-84.52,88-84.52S344.32,211,344.32,257.22Zm-53.58.36a34.79,34.79,0,1,0-34.9,33.88,34.34,34.34,0,0,0,34.68-34Z"/>
    <path class="cls-3"
          d="M222,115.16c-.36,22,15,35.77,35.36,36S294,137.85,294,115.87s-15.5-35.74-35.72-35.95S222.33,93.18,222,115.16Zm35.49,17.58c7.53-.06,14.55-5.5,14.66-17.08s-6.75-17.33-14.29-17.41-14.28,5.33-14.54,17.12S249.8,132.65,257.46,132.74ZM176,84.32c17.25-2,30.54,6.07,36,22.05L189.65,109a10.94,10.94,0,0,0-11.9-6.62c-7.5.86-12,7.4-10.71,18.84s7.14,16.8,14.71,15.9a10.73,10.73,0,0,0,10-9.15l22.43-2.61a32.15,32.15,0,0,1-30,29.7c-20.22,2.36-36.08-9.54-38.58-31.34S155.86,86.67,176,84.32ZM116.31,166.7c-17.86,4.18-32.39-3-36.39-15.87l20.43-4.76a9.69,9.69,0,0,0,12.18,5.47c5.32-1.25,7.53-4.29,6.86-7.32-1-4.26-7.11-4.27-14.47-4.28-11.17,0-25.24-.05-28.68-15-2.68-11.51,4.93-23.19,22.57-27.27s29.29,3.4,33.69,16.37l-19.08,4.43a9.13,9.13,0,0,0-11.68-5.32c-4.82,1.11-7.14,3.57-6.29,6.93,1,4.24,7,4.3,14.33,4.37,11.17.11,25.34.25,29.07,15.39C141.32,151.58,133.1,162.8,116.31,166.7Zm253.61-6-21-2.89,1.28-9.33a25,25,0,0,1-22.14,7.15c-15.83-2.18-25-14.62-22.47-32.92l5.54-40.06L332,85.53l-5.14,37.24c-1.28,9.33,3.29,15.23,11.15,16.34s14-3.33,15.25-12.69l5.18-37.24,21,2.93Zm19.89-48.21,8.22,2-6.64,26.88c-4.25,17.47,4.11,25.59,18.07,29.16l10.47,2.54,4.39-17.48L417,153.79c-4.57-1.07-5.86-3.18-4.89-7.14l6.57-27.17,13.47,3.29,4.18-17.12-13.51-3.29,4-16.4-20.61-5-4,16.4-8.18-2Z"/>
</svg>
