<svg id="Layer_1" data-name="Layer 1" xmlns="http://www.w3.org/2000/svg" viewBox="0 0 144 144"><defs><style>.cls-1{fill:#4c7dfe;}.cls-2,.cls-3{fill:#fff;}.cls-3{fill-rule:evenodd;}</style></defs><path class="cls-1" d="M130,15,74.88,2.33a9.88,9.88,0,0,0-5.65,0L14,15A9.83,9.83,0,0,0,7,25.12l6.38,81.93a10,10,0,0,0,1.51,4.58,9.77,9.77,0,0,0,3.5,3.32l48.82,25.89a9.79,9.79,0,0,0,9.54,0L125.6,115a9.87,9.87,0,0,0,5-7.91L137,25.11A9.83,9.83,0,0,0,130,15Z"/><path class="cls-2" d="M96.74,72.34A23.9,23.9,0,0,1,92.93,85L73.16,116.89a1.67,1.67,0,0,1-.59.56,1.62,1.62,0,0,1-.8.21H57.48a1.69,1.69,0,0,1-.84-.23,1.62,1.62,0,0,1-.6-.62,1.65,1.65,0,0,1-.2-.84,1.59,1.59,0,0,1,.26-.82L67,98a1.58,1.58,0,0,0,.24-.73,1.62,1.62,0,0,0-.12-.75,1.6,1.6,0,0,0-.44-.62,1.64,1.64,0,0,0-.68-.35,24.72,24.72,0,0,1-2.91-1c-9-3.41-15.78-11.89-15.78-22.12,0-13,11.11-23.67,24.64-23.67S96.74,59.39,96.74,72.34Zm-15,.1A9.84,9.84,0,0,0,80.22,67a9.75,9.75,0,1,0-8.27,15,9.62,9.62,0,0,0,9.72-9.53Z"/><path class="cls-3" d="M62.47,32.55c-.1,6.16,4.21,10,9.9,10.07s10.27-3.71,10.27-9.87-4.34-10-10-10.07S62.57,26.4,62.47,32.55Zm9.94,4.93c2.11,0,4.08-1.54,4.11-4.79s-1.9-4.85-4-4.87-4,1.49-4.07,4.79S70.26,37.45,72.41,37.48ZM49.6,23.91c4.84-.56,8.56,1.71,10.09,6.18l-6.27.73A3.07,3.07,0,0,0,50.08,29c-2.1.24-3.36,2.07-3,5.27s2,4.71,4.12,4.46a3,3,0,0,0,1.87-.78,3,3,0,0,0,1-1.78l6.28-.73a9,9,0,0,1-8.41,8.31c-5.66.66-10.1-2.67-10.8-8.77S44,24.57,49.6,23.91ZM32.88,47c-5,1.17-9.08-.85-10.2-4.45l5.72-1.33a2.76,2.76,0,0,0,1.4,1.45,2.72,2.72,0,0,0,2,.08c1.49-.35,2.11-1.2,1.92-2.05-.28-1.19-2-1.19-4.05-1.2-3.13,0-7.07,0-8-4.19C20.9,32.07,23,28.8,28,27.66s8.21.95,9.44,4.58l-5.34,1.24A2.58,2.58,0,0,0,28.79,32c-1.35.31-2,1-1.76,1.94.28,1.19,2,1.21,4,1.23,3.13,0,7.09.07,8.14,4.31C39.88,42.75,37.58,45.9,32.88,47Zm71-1.68L98,44.5l.36-2.62a7,7,0,0,1-2.85,1.77,6.92,6.92,0,0,1-3.35.23c-4.43-.61-7-4.09-6.29-9.21l1.55-11.23,5.84.81L91.84,34.69c-.36,2.61.92,4.26,3.12,4.57s3.91-.93,4.27-3.55l1.46-10.43,5.88.82Zm5.57-13.51,2.3.56-1.86,7.53c-1.19,4.9,1.15,7.17,5.06,8.17l2.93.71,1.23-4.9-2.06-.5c-1.28-.3-1.64-.89-1.37-2l1.84-7.61,3.77.93,1.17-4.8L118.71,29l1.11-4.6L114.05,23l-1.11,4.6L110.65,27Z"/></svg>