<svg id="Layer_1" data-name="Layer 1" xmlns="http://www.w3.org/2000/svg" viewBox="0 0 384 384"><defs><style>.cls-1{fill:#fff;stroke:#4c7dfe;stroke-miterlimit:10;stroke-width:14px;}.cls-2,.cls-3{fill:#4c7dfe;}.cls-3{fill-rule:evenodd;}</style></defs><path class="cls-1" d="M339.12,48.28,198.4,16A25.11,25.11,0,0,0,184,16L43.16,48.28A25.1,25.1,0,0,0,25.29,74.12l16.28,209a25.11,25.11,0,0,0,12.77,20.15L178.9,369.38a25,25,0,0,0,24.35,0l124.56-66a25.14,25.14,0,0,0,12.76-20.18L356.8,74.1a25.07,25.07,0,0,0-17.68-25.82Z"/><path class="cls-2" d="M254.16,194.62a60.94,60.94,0,0,1-9.7,32.33L194,308.27a4.14,4.14,0,0,1-3.53,2H154a4.2,4.2,0,0,1-2.13-.57,4.13,4.13,0,0,1-1.54-1.59,4.16,4.16,0,0,1,.15-4.25L178.17,260a4.18,4.18,0,0,0,.61-1.85,4.24,4.24,0,0,0-.3-1.93,4.33,4.33,0,0,0-1.13-1.58,4.22,4.22,0,0,0-1.73-.9,65,65,0,0,1-7.43-2.4c-23-8.71-40.25-30.34-40.25-56.44,0-33.2,28.33-60.4,62.87-60.4S254.16,161.57,254.16,194.62Zm-38.29.25a24.85,24.85,0,1,0-24.94,24.21,24.55,24.55,0,0,0,24.79-24.31Z"/><path class="cls-3" d="M166.73,93.1c-.25,15.71,10.75,25.56,25.27,25.69s26.19-9.47,26.19-25.18-11.08-25.54-25.53-25.69S167,77.39,166.73,93.1Zm25.36,12.56c5.38,0,10.4-3.93,10.48-12.2S197.74,81.07,192.36,81,182.15,84.82,182,93.25,186.62,105.6,192.09,105.66Zm-58.18-34.6c12.33-1.43,21.82,4.34,25.73,15.76l-16,1.86a7.78,7.78,0,0,0-8.5-4.72c-5.36.61-8.57,5.28-7.65,13.45s5.1,12,10.51,11.37a7.67,7.67,0,0,0,7.17-6.54l16-1.86a23,23,0,0,1-21.44,21.22c-14.44,1.69-25.78-6.82-27.56-22.4S119.49,72.74,133.91,71.06ZM91.23,129.93c-12.76,3-23.15-2.18-26-11.34l14.6-3.4a6.93,6.93,0,0,0,8.7,3.91c3.81-.9,5.39-3.07,4.91-5.24-.72-3-5.09-3-10.34-3.06-8,0-18,0-20.5-10.7-1.91-8.23,3.52-16.58,16.13-19.49S99.65,83,102.79,92.31L89.16,95.47a6.53,6.53,0,0,0-8.34-3.8c-3.45.79-5.11,2.55-4.5,5,.71,3,5,3.07,10.24,3.13,8,.07,18.11.17,20.78,11C109.1,119.12,103.23,127.14,91.23,129.93Zm181.22-4.29-15-2.07.91-6.67A17.85,17.85,0,0,1,242.54,122c-11.31-1.56-17.87-10.45-16.06-23.52l4-28.63,14.91,2.07-3.68,26.61c-.92,6.66,2.35,10.88,8,11.67s10-2.38,10.89-9.07l3.71-26.61,15,2.1Zm14.22-34.46,5.87,1.43-4.74,19.21c-3,12.49,2.93,18.28,12.91,20.84l7.48,1.81L311.33,122l-5.26-1.27c-3.27-.77-4.19-2.28-3.5-5.11l4.7-19.41,9.62,2.35,3-12.24L310.23,84l2.83-11.73-14.72-3.57L295.5,80.38,289.66,79Z"/></svg>