<svg id="Layer_1" data-name="Layer 1" xmlns="http://www.w3.org/2000/svg" viewBox="0 0 96 96"><defs><style>.cls-1{fill:#fff;stroke:#4c7dfe;stroke-miterlimit:10;stroke-width:3px;}.cls-2,.cls-3{fill:#4c7dfe;}.cls-3{fill-rule:evenodd;}</style></defs><path class="cls-1" d="M85.54,11.12,49.86,2.94a6.3,6.3,0,0,0-3.65,0l-35.7,8.18A6.36,6.36,0,0,0,6,17.67l4.13,53a6.26,6.26,0,0,0,1,3,6.38,6.38,0,0,0,2.26,2.15L44.92,92.53a6.35,6.35,0,0,0,6.17,0L82.67,75.78a6.27,6.27,0,0,0,2.26-2.14,6.46,6.46,0,0,0,1-3l4.11-53a6.35,6.35,0,0,0-4.48-6.55Z"/><path class="cls-2" d="M64,48.22a15.41,15.41,0,0,1-2.46,8.2L48.75,77a1.12,1.12,0,0,1-.38.37,1.06,1.06,0,0,1-.52.13H38.61a1.11,1.11,0,0,1-.54-.14,1.05,1.05,0,0,1-.52-1,1,1,0,0,1,.16-.53l7-11.12a1.08,1.08,0,0,0,.15-.47,1,1,0,0,0-.08-.49,1.12,1.12,0,0,0-.28-.4,1.1,1.1,0,0,0-.44-.23,15.23,15.23,0,0,1-1.88-.6A15.48,15.48,0,0,1,32,48.29C32,39.87,39.18,33,47.94,33S64,39.84,64,48.22Zm-9.71.07a6.19,6.19,0,0,0-1-3.55,6.27,6.27,0,1,0-3,9.24,6.27,6.27,0,0,0,2-1.33,6.41,6.41,0,0,0,1.37-2,6.07,6.07,0,0,0,.49-2.38Z"/><path class="cls-3" d="M41.84,22.49A6.12,6.12,0,0,0,48.24,29c3.68,0,6.64-2.4,6.64-6.39a6.23,6.23,0,0,0-6.47-6.51A6.2,6.2,0,0,0,41.84,22.49Zm6.42,3.18c1.37,0,2.64-1,2.66-3.09s-1.22-3.14-2.59-3.16-2.59,1-2.63,3.1S46.88,25.65,48.26,25.67ZM33.51,16.9a5.74,5.74,0,0,1,6.53,4L36,21.36a2,2,0,0,0-.87-1,1.92,1.92,0,0,0-1.29-.22c-1.35.15-2.17,1.34-1.94,3.41s1.3,3,2.67,2.88a1.91,1.91,0,0,0,1.2-.5,2,2,0,0,0,.62-1.16l4.06-.47A5.82,5.82,0,0,1,35,29.71c-3.67.43-6.54-1.73-7-5.68S29.86,17.32,33.51,16.9ZM22.69,31.82c-3.23.76-5.86-.55-6.59-2.87l3.7-.86a1.76,1.76,0,0,0,.91.93,1.72,1.72,0,0,0,1.3.06c1-.23,1.36-.78,1.24-1.33C23.07,27,22,27,20.63,27c-2,0-4.57,0-5.2-2.71-.48-2.09.9-4.2,4.09-4.94s5.31.61,6.11,3l-3.46.81a1.66,1.66,0,0,0-2.12-1c-.87.2-1.29.65-1.13,1.26.17.77,1.27.78,2.59.79,2,0,4.59,0,5.27,2.79C27.22,29.08,25.74,31.12,22.69,31.82Zm46-1.09-3.81-.52.24-1.69a4.56,4.56,0,0,1-1.85,1.14,4.43,4.43,0,0,1-2.17.15c-2.86-.39-4.53-2.64-4.07-6l1-7.26,3.78.53-.94,6.74a2.43,2.43,0,1,0,4.79.66l.93-6.74,3.81.53ZM72.24,22l1.49.36-1.2,4.87c-.77,3.17.74,4.64,3.27,5.28l1.9.46.79-3.16-1.33-.33c-.83-.19-1.06-.57-.89-1.29l1.19-4.92,2.44.59.76-3.1-2.45-.59.72-3-3.73-.91-.72,3L73,18.9Z"/></svg>