<svg id="Layer_1" data-name="Layer 1" xmlns="http://www.w3.org/2000/svg" viewBox="0 0 72 72"><defs><style>.cls-1{fill:#4c7dfe;}.cls-2{fill:#fff;}</style></defs><path class="cls-1" d="M6.27,11.33A6.67,6.67,0,0,0,2.67,14a6.55,6.55,0,0,0-1,4.34l4,34.18a6.57,6.57,0,0,0,1.12,3,6.71,6.71,0,0,0,2.43,2.12l23.66,12.2a6.83,6.83,0,0,0,6.26,0l23.68-12.2a6.69,6.69,0,0,0,2.44-2.13,6.58,6.58,0,0,0,1.13-3l4-34.18a6.51,6.51,0,0,0-1-4.33,6.71,6.71,0,0,0-3.61-2.7l-25.64-9a15,15,0,0,0-8.15,0Z"/><path class="cls-2" d="M52.08,29.22a15.09,15.09,0,0,1-2.47,8.1L36.82,57.61a1.32,1.32,0,0,1-.44.44,1.25,1.25,0,0,1-.6.16H26.85a1.2,1.2,0,0,1-.62-.17,1.08,1.08,0,0,1-.45-.45,1.18,1.18,0,0,1,0-1.22L32.61,45.8a1.13,1.13,0,0,0,.19-.53,1.32,1.32,0,0,0-.08-.55,1.2,1.2,0,0,0-.32-.45,1.16,1.16,0,0,0-.5-.27,17.2,17.2,0,0,1-1.72-.55A15.26,15.26,0,0,1,19.92,29.31c0-8.35,7.22-15.13,16-15.13S52.08,20.94,52.08,29.22Zm-9.79.06a6.15,6.15,0,0,0-1-3.5,6.31,6.31,0,0,0-2.81-2.37A6.49,6.49,0,0,0,34.83,23a6.42,6.42,0,0,0-3.29,1.66,6.22,6.22,0,0,0-1.79,3.18,6.14,6.14,0,0,0,.32,3.62,6.23,6.23,0,0,0,2.32,2.83,6.47,6.47,0,0,0,3.54,1.08,6.34,6.34,0,0,0,2.4-.43,6.26,6.26,0,0,0,3.45-3.28,6,6,0,0,0,.51-2.36Z"/></svg>