<svg id="Layer_1" data-name="Layer 1" xmlns="http://www.w3.org/2000/svg" viewBox="0 0 32 32"><defs><style>.cls-1{fill:#4c7dfe;}.cls-2{fill:#fff;}</style></defs><path class="cls-1" d="M2.56,4.66A3,3,0,0,0,.93,5.88a3,3,0,0,0-.48,2L2.27,23.32a3,3,0,0,0,1.61,2.32l10.71,5.52a3.14,3.14,0,0,0,2.84,0l10.72-5.52a3,3,0,0,0,1.1-1,2.93,2.93,0,0,0,.51-1.36L31.58,7.84a2.94,2.94,0,0,0-.47-2,3.11,3.11,0,0,0-1.64-1.23L17.86.59a6.77,6.77,0,0,0-3.68,0Z"/><path class="cls-2" d="M23.3,12.76a6.88,6.88,0,0,1-1.12,3.67l-5.79,9.18a.55.55,0,0,1-.2.2.65.65,0,0,1-.27.08H11.87a.6.6,0,0,1-.28-.08.58.58,0,0,1-.2-.21.52.52,0,0,1-.07-.27.71.71,0,0,1,.09-.28l3.08-4.78a.75.75,0,0,0,.08-.24.53.53,0,0,0,0-.25.6.6,0,0,0-.14-.21.84.84,0,0,0-.23-.12,6.91,6.91,0,0,1-.77-.25,6.91,6.91,0,0,1-4.65-6.4A7.08,7.08,0,0,1,16,6,7.11,7.11,0,0,1,23.3,12.76Zm-4.43,0a2.82,2.82,0,0,0-.45-1.59,2.89,2.89,0,0,0-1.27-1.07,3,3,0,0,0-1.66-.19,2.9,2.9,0,0,0-1.49.75,2.8,2.8,0,0,0-.67,3.08,2.87,2.87,0,0,0,1.06,1.28,3,3,0,0,0,1.6.49,2.92,2.92,0,0,0,1.09-.2,2.77,2.77,0,0,0,.93-.59,2.94,2.94,0,0,0,.63-.89,3,3,0,0,0,.23-1.07Z"/></svg>