<svg id="Layer_1" data-name="Layer 1" xmlns="http://www.w3.org/2000/svg" viewBox="0 0 64 64"><defs><style>.cls-1{fill:#fff;stroke:#4c7dfe;stroke-miterlimit:10;stroke-width:2px;}.cls-2{fill:#4c7dfe;}</style></defs><path class="cls-1" d="M5.93,10.25a5.86,5.86,0,0,0-3.16,2.36,5.76,5.76,0,0,0-.92,3.8l3.53,30a5.66,5.66,0,0,0,1,2.63,5.9,5.9,0,0,0,2.13,1.87L29.24,61.57a6,6,0,0,0,5.49,0L55.5,50.88A6,6,0,0,0,57.63,49a5.68,5.68,0,0,0,1-2.64l3.53-30a5.72,5.72,0,0,0-.92-3.79,6,6,0,0,0-3.16-2.37L35.57,2.36a13.12,13.12,0,0,0-7.14,0Z"/><path class="cls-2" d="M46.1,25.94A13.14,13.14,0,0,1,43.93,33L32.72,50.83a1.09,1.09,0,0,1-.39.38,1,1,0,0,1-.52.15H24a1,1,0,0,1-.54-.15,1,1,0,0,1-.39-.39,1,1,0,0,1-.14-.54,1.11,1.11,0,0,1,.17-.53l6-9.28a1,1,0,0,0,.16-.46,1,1,0,0,0-.07-.48,1.05,1.05,0,0,0-.71-.63,14.8,14.8,0,0,1-1.51-.49,13.37,13.37,0,0,1-9-12.4c0-7.31,6.33-13.26,14.06-13.26S46.1,18.68,46.1,25.94Zm-8.58,0a5.41,5.41,0,0,0-.86-3.07,5.6,5.6,0,0,0-2.46-2.08A5.76,5.76,0,0,0,31,20.47a5.61,5.61,0,0,0-2.88,1.45,5.5,5.5,0,0,0-1.57,2.79,5.41,5.41,0,0,0,.28,3.18,5.48,5.48,0,0,0,2,2.48,5.57,5.57,0,0,0,3.1.94,5.63,5.63,0,0,0,2.11-.38,5.45,5.45,0,0,0,3-2.87A5.32,5.32,0,0,0,37.52,26Z"/></svg>