<?xml version="1.0" encoding="utf-8"?>
<svg version="1.1" id="Layer_1" xmlns="http://www.w3.org/2000/svg" xmlns:xlink="http://www.w3.org/1999/xlink" x="0px" y="0px"
	 viewBox="0 0 615.4 165.6" style="enable-background:new 0 0 615.4 165.6;" xml:space="preserve">
<style type="text/css">
	.st0{clip-path:url(#SVGID_2_);}
	.st1{fill-rule:evenodd;clip-rule:evenodd;fill:#4C7DFE;}
	.st2{fill:#4C7DFE;}
	.st3{fill:#FFFFFF;}
</style>
<g>
	<defs>
		<rect id="SVGID_1_" y="3" width="615.4" height="162.6"/>
	</defs>
	<clipPath id="SVGID_2_">
		<use xlink:href="#SVGID_1_"  style="overflow:visible;"/>
	</clipPath>
	<g class="st0">
		<path class="st1" d="M381.1,78.1h10.5v34.4c0,22.5,12.5,30.1,30.5,30.1h13.5v-22.5h-9.5c-5.9,0-8-2.2-8-7.3V78.1h17.2v-22h-17.3
			V35.1h-26.5v21.1h-10.5V78.1z M39.8,143.9C16.7,143.9,1.2,131,0,114.3h26.2c0.6,6,6,10.1,13.3,10.1c6.8,0,10.4-3.1,10.4-7
			c0-5.6-7.5-7.3-16.5-9.4c-13.6-3.1-30.6-7.1-30.6-26.2c0-14.7,12.5-26.9,35.1-26.9c22.3,0,34.7,12.4,36.4,29.4H49.8
			c-0.8-5.9-5.3-9.8-12.7-9.8c-6.2,0-9.6,2.5-9.6,6.7c0,5.4,7.3,7.2,16.2,9.4c13.5,3.3,30.7,7.4,31,26.9
			C74.8,132.5,61.4,143.9,39.8,143.9z M129.1,54.9c21.7,0,37,11.9,41.5,32.5h-28.2c-2.2-6-6.5-9.9-13.8-9.9
			c-9.4,0-15.9,7.4-15.9,21.8s6.5,22,15.9,22c7.3,0,11.4-3.6,13.8-9.9h28.2c-4.5,20-19.8,32.5-41.5,32.5c-25.4,0-43.3-17-43.3-44.5
			S103.7,54.9,129.1,54.9L129.1,54.9z M179.3,99.3c0,27.4,19.2,44.5,44.6,44.5s45.2-17.1,45.2-44.5s-19.7-44.4-44.9-44.4
			S179.3,72,179.3,99.3L179.3,99.3z M242.2,99.3c0,14.6-8.8,21.5-18.2,21.5c-9.6,0-17.6-6.8-17.6-21.5s8.4-21.5,18-21.5
			C233.5,77.9,242.2,84.8,242.2,99.3L242.2,99.3z M368.4,142.6H342v-11.8c-5.2,7.4-14.6,12.7-26.1,12.7c-20,0-33.4-13.8-33.4-36.9
			V56.2h26.3v46.9c0,11.8,6.7,18.3,16.6,18.3c10.2,0,16.7-6.5,16.7-18.3V56.2h26.4V142.6z"/>
		<path class="st2" d="M466.8,25.5c-7.1,2.3-11.6,9.2-10.8,16.6l9.3,80.7c0.6,5.2,3.7,9.7,8.2,12.1l54.9,28.8c4.5,2.4,10,2.4,14.5,0
			l54.9-28.8c4.6-2.4,7.7-7,8.3-12.1l9.3-80.7c0.8-7.4-3.7-14.3-10.8-16.6L545.1,4.3c-6.2-1.8-12.7-1.8-18.9,0L466.8,25.5z"/>
		<path class="st3" d="M573,66.9c-0.1,6.8-2.1,13.4-5.7,19.1l-29.7,47.9c-0.5,0.9-1.4,1.4-2.4,1.4h-20.7c-1,0-2-0.6-2.5-1.5
			c-0.2-0.4-0.4-0.9-0.4-1.4c0-0.5,0.2-1,0.4-1.4l15.8-25c0.2-0.4,0.4-0.8,0.4-1.2c0.1-0.9-0.3-1.8-0.9-2.4
			c-0.3-0.3-0.7-0.5-1.2-0.6c-1.4-0.4-2.7-0.8-4-1.3c-13.6-5.1-23.8-17.9-23.8-33.4c0-19.7,16.8-35.8,37.2-35.8S573,47.3,573,66.9z
			 M550.3,67c0.2-8.1-6.2-14.9-14.3-15.1c-8.1-0.2-14.9,6.2-15.1,14.3s6.2,14.9,14.3,15.1c0.1,0,0.2,0,0.3,0
			c5.9,0.1,11.2-3.4,13.6-8.8C549.9,70.8,550.3,68.9,550.3,67z"/>
	</g>
</g>
</svg>
