<svg id="Layer_1" data-name="Layer 1" xmlns="http://www.w3.org/2000/svg" xmlns:xlink="http://www.w3.org/1999/xlink" viewBox="0 0 628.63 262"><defs><style>.cls-1{fill:none;}.cls-2{clip-path:url(#clip-path);}.cls-3,.cls-4{fill:#fff;}.cls-3{fill-rule:evenodd;}.cls-4{stroke:#4c7dfe;stroke-miterlimit:10;stroke-width:5px;}.cls-5{fill:#4c7dfe;}</style><clipPath id="clip-path"><rect class="cls-1" x="6.6" y="49.69" width="615.43" height="162.61"/></clipPath></defs><g class="cls-2"><path class="cls-3" d="M387.75,124.87h10.53l0,34.41c0,22.46,12.54,30.07,30.48,30.07h13.47V166.87h-9.45c-5.87,0-8-2.16-8-7.28V124.87H442v-22H424.73V81.8H398.28v21.08H387.75ZM46.37,190.58C23.31,190.58,7.84,177.71,6.6,161H32.76c.62,6,6,10.07,13.31,10.07,6.8,0,10.36-3.1,10.36-7,0-5.56-7.47-7.31-16.46-9.41C26.41,151.52,9.4,147.55,9.4,128.45c0-14.73,12.53-26.86,35.12-26.86,22.27,0,34.65,12.4,36.36,29.45H56.43c-.78-5.9-5.26-9.77-12.7-9.77-6.19,0-9.59,2.49-9.59,6.67,0,5.45,7.32,7.22,16.19,9.37,13.55,3.27,30.72,7.42,31,26.89C81.35,179.27,68,190.58,46.37,190.58Zm89.35-89c21.67,0,37,11.93,41.47,32.52H149c-2.17-6-6.49-9.9-13.78-9.9-9.43,0-15.93,7.44-15.93,21.84S125.75,168,135.18,168c7.29,0,11.45-3.57,13.78-9.9h28.16c-4.49,20-19.76,32.52-41.47,32.52-25.41,0-43.32-17-43.32-44.48S110.31,101.63,135.72,101.63Zm50.22,44.48c0,27.42,19.16,44.47,44.57,44.47s45.17-17.05,45.17-44.47S256,101.63,230.82,101.63,185.94,118.68,185.94,146.11Zm62.82,0c0,14.57-8.82,21.54-18.25,21.54-9.6,0-17.65-6.83-17.65-21.54s8.36-21.53,18-21.53C240.09,124.58,248.76,131.53,248.76,146.11ZM375,189.35H348.56V177.57C343.31,185,334,190.3,322.42,190.3c-20,0-33.43-13.79-33.43-36.89V102.88h26.3v46.94c0,11.78,6.66,18.3,16.56,18.3,10.22,0,16.71-6.52,16.71-18.3V102.88H375Z"/><path class="cls-4" d="M472.61,75.7c-3.23,1-5.05,3.15-6.9,6a14.66,14.66,0,0,0-2.29,9.63l8.77,76A14.65,14.65,0,0,0,480,178.74l51.63,27.13a14.65,14.65,0,0,0,13.66,0l51.68-27.13a14.69,14.69,0,0,0,7.77-11.43l8.79-76a14.74,14.74,0,0,0-10.17-15.63l-56-20a32.33,32.33,0,0,0-17.77,0Z"/><path class="cls-5" d="M579.57,113.58a36,36,0,0,1-5.73,19.11l-29.65,47.94a2.82,2.82,0,0,1-2.4,1.41h-20.7a2.82,2.82,0,0,1-2.48-1.46,3,3,0,0,1-.35-1.45,2.89,2.89,0,0,1,.44-1.43l15.75-25a2.75,2.75,0,0,0,.43-1.24,2.82,2.82,0,0,0-.93-2.38,2.8,2.8,0,0,0-1.15-.62,35,35,0,0,1-4-1.32C515.17,142,505,129.23,505,113.77,505,94.07,521.78,78,542.19,78S579.57,94,579.57,113.58Zm-22.69.14A14.68,14.68,0,1,0,542.13,128a14.48,14.48,0,0,0,13.57-8.77A14.32,14.32,0,0,0,556.88,113.72Z"/></g></svg>